<svg id="图层_1" data-name="图层 1" xmlns="http://www.w3.org/2000/svg" viewBox="0 0 1080.64 397.95"><defs><style>.cls-1,.cls-2{fill:#fff;}.cls-1,.cls-3{stroke:#fff;}.cls-1,.cls-2,.cls-3{stroke-miterlimit:10;}.cls-2{stroke:#000;}.cls-3{fill:none;stroke-width:8px;}</style></defs><path class="cls-1" d="M536.74,181.24H516.05l-33.3-49.46a23.3,23.3,0,0,1-1.61-2.75c-.54-1-1.11-2.26-1.72-3.65H479c-.34.72-.8,1.61-1.37,2.66s-1.26,2.3-2.06,3.74l-34.31,49.46H420.49l48.44-65L424.32,52h20.79l29.57,45.41q1.41,2.26,2.72,4.51c.88,1.5,1.68,3,2.42,4.5h.41q1.61-3,3-5.31c.95-1.56,1.82-2.92,2.63-4.06L516.66,52h19.47L490.62,116.1Z" transform="translate(0.49 -0.9)"/><path class="cls-1" d="M605.46,144.3q0,18.48-9.09,28.79t-28.25,10.32a67.77,67.77,0,0,1-9-.55,63.11,63.11,0,0,1-8.68-1.8L554.9,168a46,46,0,0,0,6.51,1.4,47.5,47.5,0,0,0,6.21.4q10.08,0,15.48-5.77t5.4-19.55V52h17Z" transform="translate(0.49 -0.9)"/><path class="cls-1" d="M727.56,65.74H685.78v115.5H668.83V65.74H627.15V52H727.56Z" transform="translate(0.49 -0.9)"/><path class="cls-1" d="M825.54,181.24H750.46V52h17V167.55h58.12Z" transform="translate(0.49 -0.9)"/><path class="cls-1" d="M952,129.59q0,26.94-13.54,40.36t-40.73,13.43q-26,0-39-12.89t-13-38.77v-78h16.73v77q0,19.56,9.26,29.39T899.47,170q17.92,0,26.84-9.47t8.91-28.4V53.75H952Z" transform="translate(0.49 -0.9)"/><path class="cls-1" d="M740.49,352a91.35,91.35,0,0,1-18.64,6.57,88.24,88.24,0,0,1-19.74,2.08q-29.85,0-46.42-17.75t-16.58-46.58q0-31.62,18.5-50.41t48.26-18.79a84.46,84.46,0,0,1,17.41,1.72,88.45,88.45,0,0,1,16.85,5.49l-5.7,12.43a71.29,71.29,0,0,0-14-4.54,72.34,72.34,0,0,0-14.69-1.4q-23.15,0-36.78,14.64t-13.64,40q0,23.7,13.09,37.66T703,347a69.32,69.32,0,0,0,31.31-7.3Z" transform="translate(0.49 -0.9)"/><path class="cls-1" d="M838.34,358.43H823.28V305.28q0-14.41-5.46-21.63t-16.39-7.2a24,24,0,0,0-18.55,8.33q-7.53,8.34-7.53,21.4v52.25H760.29V221.85h15.06v59.64h.36a37.18,37.18,0,0,1,13.14-13.11A35.35,35.35,0,0,1,806.57,264q15.88,0,23.83,9.37t7.94,28.2Z" transform="translate(0.49 -0.9)"/><path class="cls-1" d="M872.55,244.1a10.63,10.63,0,0,1-7.71-3,10.41,10.41,0,0,1,0-14.86,11.36,11.36,0,0,1,15.43,0,10.41,10.41,0,0,1,0,14.86A10.64,10.64,0,0,1,872.55,244.1Zm7.35,114.33H864.84V266.18H879.9Z" transform="translate(0.49 -0.9)"/><path class="cls-1" d="M986.57,358.43H971.51V305.82q0-14.69-5.47-22t-16.39-7.34A23.93,23.93,0,0,0,931,284.78q-7.4,8.34-7.39,21v52.61H908.51V266.18h15.06v15.31h.37a36.47,36.47,0,0,1,13-13.11A35.54,35.54,0,0,1,954.79,264q15.44,0,23.61,9.78T986.57,302Z" transform="translate(0.49 -0.9)"/><path class="cls-1" d="M1079.64,358.43h-15.06V344h-.36a33.62,33.62,0,0,1-12,12.43,32.35,32.35,0,0,1-16.57,4.15q-13.23,0-21.4-7.57t-8.18-20.09a25.65,25.65,0,0,1,8.27-19.55q8.26-7.75,23.42-9.91l26.81-3.52v-2.07q0-11.62-5.51-16.53t-14.69-4.91a37.94,37.94,0,0,0-14.14,2.7,40.6,40.6,0,0,0-12.77,8.29l-8.81-8.92a52.3,52.3,0,0,1,16.8-11A53.5,53.5,0,0,1,1045.3,264q17.09,0,25.71,8.61t8.63,25.81ZM1064.58,321v-9.19l-22.68,3.07q-10.38,1.44-15.61,5.13t-5.24,11.63q0,8.28,4.92,12.65a17.35,17.35,0,0,0,12,4.37q12.21,0,19.43-7.83T1064.58,321Z" transform="translate(0.49 -0.9)"/><path class="cls-2" d="M459,201.92" transform="translate(0.49 -0.9)"/><path class="cls-1" d="M477.9,229.85l9.63,28.41s3.21,10.19,18.81,7.28,32.84.14,34.86-.29c6.88-1.45-34-1.94-38.53-12.61-3.57-8.29-15.35-41.23-15.35-41.23H468.71s-20.94,55.16-25.22,66.45c-2.75,7.28,1.84,9.22,10.55,3.88,19.21-11.75,30.63-12.22,34.41-14.06,6-2.91-26.61,7.76-23.86-1" transform="translate(0.49 -0.9)"/><path class="cls-1" d="M472.32,276.41a44.51,44.51,0,0,0-16.05,18.43c-3.25,7.26-3.21,6.31-3.67,9.22h0l54.25-.15-7.63-20.81a10.67,10.67,0,0,1,4.29-12.8,39.27,39.27,0,0,1,12-3.46c5.76-.77,12.1-1.33,15.57-1.1,12.49.85,4.36.23-4,2.36-6.06,1.54-13,3-10.69,9.28,3.31,9.1,32.11,81.49,31.78,81.74H527l-14.8-39.54H446.64l-15,39.54h-20l19.87-49.73s2.91-11.11,11.93-17.94c4.41-3.35,14.18-8.62,18.34-10.67C468.65,277.38,477.12,273.37,472.32,276.41Z" transform="translate(0.49 -0.9)"/><path class="cls-2" d="M497.16,282.71" transform="translate(0.49 -0.9)"/><path class="cls-1" d="M569.82,211.69v53.86c0,.05,0,.1,0,.15.14.9,1.57,8.84,11.7,11.9a33.32,33.32,0,0,1,3.58,1.3A98.6,98.6,0,0,1,607.56,293c2.27,1.89-5.81-5.41-13.07-12.77a23.6,23.6,0,0,1-6.69-16.56v-52a.94.94,0,0,0-.92-1H570.74A.94.94,0,0,0,569.82,211.69Z" transform="translate(0.49 -0.9)"/><path class="cls-1" d="M569.86,358.94h18l-.4-60.91c0-4.71,4.31-7,8.62-5.83,4.62,1.26,10.12,5.14,19.33,10.22,1.87,1-13.79-11.38-19.3-15.26-5.88-4.15-12.55-6.38-15.56-6.56-8-.47-10.76,4.15-10.67,11.16C570,301.45,569.86,358.94,569.86,358.94Z" transform="translate(0.49 -0.9)"/><path class="cls-3" d="M36.52,108.53c26.55-.06,81.41-.09,108.16-.08" transform="translate(0.49 -0.9)"/><polyline class="cls-3" points="64.77 107.56 86.24 82.61 132.97 82.61"/><polyline class="cls-3" points="20.45 152.56 42.07 129.17 98.04 129.15"/><polyline class="cls-3" points="18.02 189.06 31.87 188.9 65.88 152.56 144.16 152.56"/><polyline class="cls-3" points="44.6 176.76 69.92 176.99 96.22 204.24 137.44 203.83 150.38 192.35"/><polyline class="cls-3" points="82.08 191.94 97.44 174.71 128.35 174.55"/><path class="cls-2" d="M181.44,203.54" transform="translate(0.49 -0.9)"/><polyline class="cls-3" points="18.43 226.39 153.27 225.13 169.78 207.52"/><polyline class="cls-3" points="86.24 224.53 103.5 246.47 159.49 246.47"/><polyline class="cls-3" points="26.91 264.75 57.26 264.69 80.83 292.64 160.82 292.64"/><polyline class="cls-3" points="71.39 283.62 88.19 265.98 123.5 265.98"/><line class="cls-3" x1="21.66" y1="246.29" x2="70.66" y2="246.25"/><path class="cls-3" d="M149.58,101.59c-8.49.51-7.43,13.52,1,12.87C158.6,113.45,157.3,101.55,149.58,101.59Z" transform="translate(0.49 -0.9)"/><path class="cls-3" d="M134.27,168.45c-8.5.52-7.43,13.53,1,12.87C143.28,180.31,142,168.42,134.27,168.45Z" transform="translate(0.49 -0.9)"/><path class="cls-3" d="M130.38,261.06c-8.5.51-7.43,13.53,1,12.87C139.39,272.92,138.09,261,130.38,261.06Z" transform="translate(0.49 -0.9)"/><path class="cls-3" d="M104.6,123.05c-8.5.51-7.44,13.52,1,12.87C113.61,134.91,112.31,123,104.6,123.05Z" transform="translate(0.49 -0.9)"/><path class="cls-3" d="M172.89,197.22c-8.49.51-7.43,13.52,1,12.87C181.91,209.08,180.61,197.18,172.89,197.22Z" transform="translate(0.49 -0.9)"/><path class="cls-1" d="M366,88.42C248.18-90.16-40.29,28.91,4.73,239.58,82.26,546.39,531,360.32,366,88.42Zm-138-70.14c66.14,9.86,120.32,56.33,143.36,116.37h-14v7.65h15.71c-1.28,6.36-4.38,13.83-7.88,20.18-5.72.09-10.92.06-17.35-.09l-.18,7.65c4.67.11,8.51.16,12.69.14a107.39,107.39,0,0,1-28.81,27.62,222.54,222.54,0,0,1-40-27.24q6.19,0,12.47-.14l-.14-7.65c-7,.13-13.83.17-20.72.13a179.89,179.89,0,0,1-18.52-21H278v-7.65h-19a171.55,171.55,0,0,1-12.23-21.43h14.69v-7.65H243.41A183.21,183.21,0,0,1,235.69,83c6,0,12.06,0,18.21,0l0-7.66c-6.77,0-13.47,0-20.15,0a213.51,213.51,0,0,1-4.2-24.12c6,0,12.46,0,18.1,0l0-7.66c-5.78,0-12,.05-18.82,0C228.07,35.54,227.81,26.34,227.92,18.28ZM78.28,332.83a182.64,182.64,0,0,1-43.91-63.12h.38a7.69,7.69,0,0,1-1.63-3.83h-.3q-3.09-7.89-5.46-16h.31A7.69,7.69,0,0,1,26.55,246H26.3q-1.73-6.45-3-13h.07a7.24,7.24,0,0,1-.48-3.83h-.27c-1-5.69-1.65-11.44-2.07-17.21h.29a6.93,6.93,0,0,1-.16-3.83h-.36c-.29-9.22-.53-18.78.83-27.93h-.09a174.67,174.67,0,0,1,3.75-22.08c2.74-13,7.71-25.91,13.68-38h-.08q2.1-4.24,4.43-8.41h0a11.78,11.78,0,0,1,2.64-3.83h-.44A192.17,192.17,0,0,1,108.76,43c29.33,4,68.31,50.42,59.42,80.75l5.13,1.42-5.07-1c-3.18,14.85-9.4,22.33,2.12,42.92,10.94,20,16.45,26.47,27,42.37l-.2.18.28.32-.12.12.17.16c-8.48,9.65-23,21.32-20.95,32.42l-.38,0a46.53,46.53,0,0,0,3,11l0,0a5.52,5.52,0,0,1,.52,2.14c-3.66,4.77-13.85,8.92-7.38,15.38l-.13.2a44.76,44.76,0,0,0,6,3c-.18.27-.4.58-.67.94l1.46,1.12-1.57-.92c-3.06,4.56-5.29,10.18-4.12,27.28l-.17,0c-.75,19.16-45.36,9.87-63.36,12.19v.06C93.31,318.71,87.51,323.82,78.28,332.83Zm135.59,48.43c-44.54,3.83-94.39-13.5-126.94-40.87,4.15-4.59,13.68-12.39,24.75-13.92v0c20.1-1.87,51.3,6.54,67.45-9.76l.24.2c3.77-4.05,6.12-6.68,5.36-12.27h.16c-1.54-17.3.86-20.87,1.76-22.21,3.87-4.14,5.48-13-.57-16.54,3-2.86,6.4-6.77,4.47-14.06l.25-.12a38.18,38.18,0,0,1-3.26-10.4l-4.37.55,4.71-.84c.22-7,15.84-19.23,21.45-26.88l-.35-.3a7.88,7.88,0,0,0,.43-6.63l.13-.09c-11.36-17.5-17.73-24.62-29.15-45.53l-5,2.76,4.95-2.89c-9.39-15.87-3.5-21.6-.86-35l-.14,0c9.05-33.15-23.68-78.55-56.64-91.16a174,174,0,0,1,90-18.54c-2.34,81.38,33.23,150.47,105.47,191.25C263.67,240,218.84,328.22,213.87,381.26Zm84.79-28.59h0a182.19,182.19,0,0,1-68.86,26.69c1.29-6.73,3.19-16.5,6.45-28.21,6.22,0,12.74.06,18.84.21l.18-7.65c-5.45-.14-11.22-.16-16.77-.2a259.35,259.35,0,0,1,9.17-25c6.19-.06,12.51,0,18.5.06l.14-7.65c-4.94-.08-10.08-.11-15.2-.09A236,236,0,0,1,265,285.23c6.37,0,12.91,0,19.79,0l0-7.65c-5.62,0-10.39,0-14.75,0a223.83,223.83,0,0,1,18.29-23.2c5.67,0,11.37,0,17-.09l-.09-7.65-9.64.07a228.19,228.19,0,0,1,37-30.09c6.32,4.58,19.14,14.25,28.33,28.59l-11.3,0,.05,7.65c5.34,0,10.41,0,15.54,0a62.84,62.84,0,0,1,4.87,14A184.53,184.53,0,0,1,298.66,352.67Zm78.93-109.11c-9.31-17.73-23.65-29.95-32.5-36.65,14.8-10.94,26.83-24.16,35.16-40.49A180.29,180.29,0,0,1,377.59,243.56Z" transform="translate(0.49 -0.9)"/><path class="cls-1" d="M321.54,259.19H309.67v-2.35h4.86V243L310,245.47l-.92-2.15,6-3.17h2.23v16.69h4.22Z" transform="translate(0.49 -0.9)"/><path class="cls-1" d="M321.16,175.4H309.29v-2.35h4.85V159.22l-4.52,2.46-.92-2.14,6-3.18h2.22v16.69h4.23Z" transform="translate(0.49 -0.9)"/><path class="cls-1" d="M354.35,147.85H342.48V145.5h4.85V131.67l-4.52,2.46-.92-2.14,6-3.18h2.22V145.5h4.23Z" transform="translate(0.49 -0.9)"/><path class="cls-1" d="M271.18,89.31H259.31V87h4.86V73.13l-4.52,2.47-.93-2.15,6-3.18H267V87h4.22Z" transform="translate(0.49 -0.9)"/><path class="cls-1" d="M284.53,323.46H272.66v-2.35h4.86V307.28L273,309.75l-.93-2.15,6-3.17h2.22v16.68h4.22Z" transform="translate(0.49 -0.9)"/><path class="cls-1" d="M345.78,249.72c.81,12.74-14.7,13.06-13.73,0C331.25,237,346.74,236.64,345.78,249.72Zm-11.19-.09c0,.59,0,1.2.06,1.77l8-5.93C340.1,238.31,333.61,244,334.59,249.63Zm8.65.18c0-.65-.06-1.3-.12-1.93l-8,6C337.57,261.1,344.24,255.61,343.24,249.81Z" transform="translate(0.49 -0.9)"/><path class="cls-1" d="M342.73,165.55c.81,12.73-14.7,13-13.73,0C328.2,152.79,343.69,152.47,342.73,165.55Zm-11.19-.09a17.35,17.35,0,0,0,.06,1.77l8-5.93C337.05,154.14,330.56,159.78,331.54,165.46Zm8.65.17c0-.64-.06-1.29-.12-1.93l-8,6C334.52,176.93,341.19,171.43,340.19,165.63Z" transform="translate(0.49 -0.9)"/><path class="cls-1" d="M297.71,138c.82,12.74-14.69,13.06-13.73,0C283.19,125.24,298.67,124.92,297.71,138Zm-11.18-.09a17.27,17.27,0,0,0,.05,1.77l8-5.93C292,126.59,285.54,132.23,286.53,137.91Zm8.64.18c0-.65-.06-1.3-.11-1.93l-8,6C289.5,149.38,296.17,143.89,295.17,138.09Z" transform="translate(0.49 -0.9)"/><path class="cls-1" d="M281.31,108.92c.81,12.74-14.7,13.06-13.73,0C266.78,96.17,282.27,95.85,281.31,108.92Zm-11.19-.09a17.25,17.25,0,0,0,.06,1.77l8-5.93C275.63,97.51,269.14,103.15,270.12,108.83Zm8.65.18c0-.65-.06-1.3-.12-1.93l-8,6C273.1,120.31,279.77,114.81,278.77,109Z" transform="translate(0.49 -0.9)"/><path class="cls-1" d="M267.2,48.09c.81,12.73-14.7,13-13.74,0C252.67,35.33,268.15,35,267.2,48.09ZM256,48a17.36,17.36,0,0,0,.05,1.77l8-5.93C261.52,36.68,255,42.32,256,48Zm8.64.17c0-.64-.06-1.29-.11-1.92l-8,6C259,59.47,265.65,54,264.65,48.17Z" transform="translate(0.49 -0.9)"/><path class="cls-1" d="M274.44,347.28c.82,12.74-14.7,13.06-13.73,0C259.92,334.53,275.4,334.21,274.44,347.28Zm-11.18-.08a17.16,17.16,0,0,0,.05,1.76l8-5.93C268.76,335.87,262.27,341.51,263.26,347.2Zm8.64.17c0-.64-.06-1.3-.12-1.93l-8,6C266.23,358.67,272.9,353.17,271.9,347.37Z" transform="translate(0.49 -0.9)"/><path class="cls-1" d="M304.58,281.09c.81,12.74-14.7,13.06-13.73,0C290.05,268.34,305.54,268,304.58,281.09ZM293.39,281c0,.59,0,1.2.06,1.77l8-5.93C298.9,269.68,292.41,275.32,293.39,281Zm8.65.18c0-.64-.06-1.3-.12-1.93l-8,6C296.37,292.48,303,287,302,281.18Z" transform="translate(0.49 -0.9)"/></svg>